{"title":"The Reef 2010 720p BRRip x264 Feel-Free ","uid":6183564,"size":1851754792,"categoryP":"video","categoryS":"hd___movies","magnet":"?xt=urn:btih:cd810c8463b31d22b6e2ac198474d3a7735d5ec7&amp;dn=The+Reef+2010+720p+BRRip+x264+Feel-Free+&amp;tr=udp%3A%2F%2Ftracker.openbittorrent.com%3A80&amp;tr=udp%3A%2F%2Fopen.demonii.com%3A1337&amp;tr=udp%3A%2F%2Ftracker.coppersurfer.tk%3A6969&amp;tr=udp%3A%2F%2Fexodus.desync.com%3A6969","seeders":0,"leechers":1,"uploader":"neon","files":-1,"time":1297990242,"description":"Genre:Thriller\nLanguage:English\n &lt;a href=&quot; http://www.imdb.com/title/tt1320291/&quot; rel=&quot;nofollow&quot; target=&quot;_NEW&quot;&gt; http://www.imdb.com/title/tt1320291/&lt;/a&gt;\nSource:1080p BluRay x264-LEVERAGE\nSubtitles:Romana\n\n\nFormat : MPEG-4\nFormat profile : Base Media\nCodec ID : isom\nFile size : 1.72 GiB\nDuration : 1h 27mn\nOverall bit rate : 2 802 Kbps\n\n\nVideo\nFormat settings, CABAC : Yes\nFormat settings, ReFrames : 3 frames\nCodec ID : avc1\nCodec ID/Info : Advanced Video Coding\nDuration : 1h 27mn\nBit rate mode : Variable\nBit rate : 2 395 Kbps\nMaximum bit rate : 18.0 Mbps\nWidth : 1 280 pixels\nHeight : 544 pixels\nDisplay aspect ratio : 2.35:1\nFrame rate mode : Constant\nFrame rate : 23.976 fps\nColor space : YUV\nChroma subsampling : 4:2:0\nBit depth : 8 bits\nScan type : Progressive\nBits/(Pixel*Frame) : 0.143\nStream size : 1.41 GiB (82%)\nWriting library : x264 \n\n\nAudio\nID : 2\nFormat : AAC\nFormat/Info : Advanced Audio Codec\nFormat version : Version 4\nFormat profile : LC\nFormat settings, SBR : No\nCodec ID : 40\nDuration : 1h 27mn\nBit rate mode : Variable\nBit rate : 502 Kbps\nMaximum bit rate : 642 Kbps\nChannel(s) : 6 channels\nChannel positions : Front: L C R, Side: L R, LFE\nSampling rate : 48.0 KHz\nStream size : 316 MiB (18%)\n\n\n\nPlot:\nA great white shark hunts the crew of a capsized sailboat along the Great Barrier Reef\n &lt;a href=&quot;\nhttp://www.postimg.com/29000/28415.jpg&quot; rel=&quot;nofollow&quot; target=&quot;_NEW&quot;&gt;\nhttp://www.postimg.com/29000/28415.jpg&lt;/a&gt; &lt;a href=&quot;\nhttp://www.postimg.com/29000/28412.jpg&quot; rel=&quot;nofollow&quot; target=&quot;_NEW&quot;&gt;\nhttp://www.postimg.com/29000/28412.jpg&lt;/a&gt; &lt;a href=&quot;\nhttp://www.postimg.com/29000/28412.jpg&quot; rel=&quot;nofollow&quot; target=&quot;_NEW&quot;&gt;\nhttp://www.postimg.com/29000/28412.jpg&lt;/a&gt; &lt;a href=&quot;\nhttp://www.postimg.com/29000/28417.jpg&quot; rel=&quot;nofollow&quot; target=&quot;_NEW&quot;&gt;\nhttp://www.postimg.com/29000/28417.jpg&lt;/a&gt; &lt;a href=&quot;\nhttp://www.postimg.com/29000/28416.jpg&quot; rel=&quot;nofollow&quot; target=&quot;_NEW&quot;&gt;\nhttp://www.postimg.com/29000/28416.jpg&lt;/a&gt;","torrent":{"xt":"urn:btih:cd810c8463b31d22b6e2ac198474d3a7735d5ec7","amp;dn":"The+Reef+2010+720p+BRRip+x264+Feel-Free+","amp;tr":["udp%3A%2F%2Ftracker.openbittorrent.com%3A80","udp%3A%2F%2Fopen.demonii.com%3A1337","udp%3A%2F%2Ftracker.coppersurfer.tk%3A6969","udp%3A%2F%2Fexodus.desync.com%3A6969"],"infoHash":"cd810c8463b31d22b6e2ac198474d3a7735d5ec7","infoHashBuffer":{"type":"Buffer","data":[205,129,12,132,99,179,29,34,182,226,172,25,132,116,211,167,115,93,94,199]},"announce":[],"urlList":[]}}